{
    "asset" : {
        "generator" : "Khronos glTF Blender I/O v3.4.50",
        "version" : "2.0"
    },
    "scene" : 0,
    "scenes" : [
        {
            "name" : "Scene",
            "nodes" : [
                0
            ]
        }
    ],
    "nodes" : [
        {
            "mesh" : 0,
            "name" : "dice"
        }
    ],
    "materials" : [
        {
            "doubleSided" : true,
            "name" : "diceDark_material",
            "pbrMetallicRoughness" : {
                "baseColorTexture" : {
                    "index" : 0
                },
                "metallicFactor" : 0,
                "roughnessFactor" : 0.5
            }
        }
    ],
    "meshes" : [
        {
            "name" : "\u041c\u0435\u0448",
            "primitives" : [
                {
                    "attributes" : {
                        "POSITION" : 0,
                        "TEXCOORD_0" : 1,
                        "NORMAL" : 2
                    },
                    "indices" : 3,
                    "material" : 0
                }
            ]
        }
    ],
    "textures" : [
        {
            "sampler" : 0,
            "source" : 0
        }
    ],
    "images" : [
        {
            "bufferView" : 4,
            "mimeType" : "image/png",
            "name" : "dice_texture_dark"
        }
    ],
    "accessors" : [
        {
            "bufferView" : 0,
            "componentType" : 5126,
            "count" : 22505,
            "max" : [
                0.08303043991327286,
                0.09521219879388809,
                0.07105495780706406
            ],
            "min" : [
                -0.07696962356567383,
                -0.0647878497838974,
                -0.0889451652765274
            ],
            "type" : "VEC3"
        },
        {
            "bufferView" : 1,
            "componentType" : 5126,
            "count" : 22505,
            "type" : "VEC2"
        },
        {
            "bufferView" : 2,
            "componentType" : 5126,
            "count" : 22505,
            "type" : "VEC3"
        },
        {
            "bufferView" : 3,
            "componentType" : 5123,
            "count" : 113472,
            "type" : "SCALAR"
        }
    ],
    "bufferViews" : [
        {
            "buffer" : 0,
            "byteLength" : 270060,
            "byteOffset" : 0,
            "target" : 34962
        },
        {
            "buffer" : 0,
            "byteLength" : 180040,
            "byteOffset" : 270060,
            "target" : 34962
        },
        {
            "buffer" : 0,
            "byteLength" : 270060,
            "byteOffset" : 450100,
            "target" : 34962
        },
        {
            "buffer" : 0,
            "byteLength" : 226944,
            "byteOffset" : 720160,
            "target" : 34963
        },
        {
            "buffer" : 0,
            "byteLength" : 1968212,
            "byteOffset" : 947104
        }
    ],
    "samplers" : [
        {
            "magFilter" : 9729,
            "minFilter" : 9987
        }
    ],
    "buffers" : [
        {
            "byteLength" : 2915316,
            "uri" : "data:application/octet-stream;base64,"
        }
    ]
}
